<?xml version="1.0" encoding="utf-8"?>
<!-- Generator: Adobe Illustrator 26.3.1, SVG Export Plug-In . SVG Version: 6.00 Build 0)  -->
<svg version="1.1" id="Layer_1" xmlns="http://www.w3.org/2000/svg" xmlns:xlink="http://www.w3.org/1999/xlink" x="0px" y="0px"
	 viewBox="0 0 260 260" style="enable-background:new 0 0 260 260;" xml:space="preserve">
<style type="text/css">
	.st0{fill:#121425;}
	.st1{opacity:0.35;fill:#FFFFFF;}
	.st2{fill:#9237CB;}
</style>
<rect class="st0" width="260" height="260"/>
<g>
	<path class="st1" d="M155.5,242c-4.1-50.3-11-134.5-51.8-175.3c-10.5-9.9-23.9-15.8-35.9-15.8c-4.2,0-8.2,0.7-11.9,2.1L55.7,53
		C40.8,57.9,31.5,74.9,35,91c7.5,28.1,42.8,45.7,76.4,59.3c3.9,1.3,7.9,5.1,8.2,10.5c0.2,2.8-0.8,5.7-2.8,8
		c-2.9,3.1-7.2,5.3-10.9,7.3c-1.7,0.9-3.2,1.7-4.3,2.3l-0.2,0.1c-19.7,11.1-33.4,25-40.9,41.2l-2.4,5.2l-12-4.4l1.5-5.5
		c6.3-22.8,22.7-39.6,36.8-50.4c-13.2-5.3-25.6-11.8-36.1-19c-17.1-11.7-28.6-24.9-34.3-39c-6.5-16-5.3-32.7,3.6-49.6l0.1-0.2
		c10.3-18,27.4-27.8,48.2-27.8c19,0,38.5,8.6,52.2,23.1c31.5,33.2,39.9,77.6,46.4,124c2.4,19.5,3.9,40.1,4.7,64.9l0.2,5.9l-13.3,1.2
		L155.5,242z"/>
	<path class="st2" d="M140.3,245.6c-11.3-40-21.9-83.3-22.6-128.5c-0.5-21.8,3.2-43.2,10.4-60.2c9.3-22,23.9-36.9,43.3-44.2
		c6.2-2.2,12.6-3.4,19-3.4c28,0,52.1,21.3,56.2,49.6l0,0.3c2.6,30-13.6,58.7-49.5,87.8c17,6,37.9,17,50.9,36.9l3.1,4.8l-10,7.8
		l-3.9-4.2c-12.2-13.2-29.5-22.2-51.5-26.7l-0.2,0c-1.2-0.3-2.9-0.6-4.6-0.9c-4.3-0.7-9.1-1.5-12.7-3.5L168,161
		c-3.4-2.1-5.4-5.8-5.5-9.7c0-3.8,1.9-7.6,5.1-9.7c26.2-21.7,56-50.3,54.5-79.8c-1.7-16.4-15.7-29.9-31.3-29.9l-0.2,0
		c-0.6,0-1.1,0-1.6,0c-18.2,0-32.8,15-39.8,27.9c-18,34.9-14,78.6-8.4,120.3c2.8,18.6,6.9,38.4,12.7,62.2l1.5,6.3l-13.1,2.6
		L140.3,245.6z"/>
</g>
</svg>
