<?xml version="1.0" encoding="utf-8"?>
<!-- Generator: Adobe Illustrator 26.3.1, SVG Export Plug-In . SVG Version: 6.00 Build 0)  -->
<svg version="1.1" id="Layer_1" xmlns="http://www.w3.org/2000/svg" xmlns:xlink="http://www.w3.org/1999/xlink" x="0px" y="0px"
	 viewBox="0 0 64 64" style="enable-background:new 0 0 64 64;" xml:space="preserve">
<style type="text/css">
	.st0{clip-path:url(#SVGID_00000152222474159439582850000016084799822676208280_);}
	.st1{fill:#FFFFFF;}
</style>
<g id="Group_29" transform="translate(0 0)">
	<g>
		<defs>
			<rect id="SVGID_1_" x="16" y="15.3" width="32" height="33.3"/>
		</defs>
		<clipPath id="SVGID_00000141417813962617784890000010582301802350742414_">
			<use xlink:href="#SVGID_1_"  style="overflow:visible;"/>
		</clipPath>
		<g id="Group_28" style="clip-path:url(#SVGID_00000141417813962617784890000010582301802350742414_);">
			<path id="Path_17" class="st1" d="M30.7,26.7h0.6c1.3,0,2.4-1.1,2.4-2.4v-3.9c0-1.3-1.1-2.4-2.4-2.4h-0.6c-1.3,0-2.4,1.1-2.4,2.4
				v3.9C28.4,25.6,29.4,26.7,30.7,26.7 M30.1,20.3c0-0.5,0.4-0.9,0.9-0.9c0.5,0,0.9,0.4,0.9,0.9v4.2c0,0.5-0.4,0.9-0.9,0.9
				c-0.5,0-0.9-0.4-0.9-0.9l0,0V20.3z"/>
			<path id="Path_18" class="st1" d="M23.6,26.5h2.1v-4.6l2.4-6.6h-2l-1.5,4.4l-1.5-4.4h-2.2l2.6,6.6L23.6,26.5z"/>
			<path id="Path_19" class="st1" d="M36.7,26.7c0.8-0.1,1.6-0.5,2.3-1v0.9h1.7v-8.5H39v6.6c0,0-0.6,0.7-1.2,0.7s-0.6-0.5-0.6-0.5
				v-6.8h-1.8v7.5C35.5,26.2,36,26.7,36.7,26.7"/>
			<path id="Path_20" class="st1" d="M35.5,36.4c-0.3,0-0.7,0.2-0.9,0.5v6c0.2,0.3,0.6,0.4,0.9,0.4c0.9,0,0.9-1,0.9-1v-4.9
				C36.4,37.4,36.3,36.4,35.5,36.4"/>
			<path id="Path_21" class="st1" d="M42.4,36.4c-0.9,0-0.9,1-0.9,1v1.3h1.8v-1.3C43.3,37.4,43.3,36.4,42.4,36.4"/>
			<path id="Path_22" class="st1" d="M43.1,28.6L43.1,28.6H43c0,0-5.5-0.3-11-0.3s-11,0.3-11,0.3c-2.4-0.1-4.4,1.8-4.5,4.2
				c0,0,0,0,0,0c0,0.1,0,0.1,0,0.1c-0.3,1.8-0.4,3.7-0.5,5.5c0,1.9,0.2,3.7,0.5,5.6c0,2.4,2,4.4,4.4,4.4H21c0,0,5.4,0.3,11,0.3
				s11-0.3,11-0.3c2.4,0.1,4.4-1.8,4.5-4.2c0,0,0-0.1,0-0.1c0.3-1.8,0.4-3.7,0.5-5.6c0-1.9-0.2-3.7-0.5-5.6
				C47.5,30.4,45.5,28.5,43.1,28.6C43.1,28.6,43.1,28.6,43.1,28.6 M25.5,33.4h-2.2v11.3h-2.2V33.4h-2.2v-1.9h6.6L25.5,33.4z
				 M31.2,44.7h-1.8v-0.9c-0.6,0.6-1.4,0.9-2.3,1c-0.7,0-1.3-0.5-1.4-1.1v-8.9h1.9v8.3c0,0,0,0.4,0.6,0.4c0.6,0,1.2-0.7,1.2-0.7v-8
				h1.8L31.2,44.7z M36.6,44.9c-0.8,0-1.5-0.3-1.9-1v0.8h-2V31.6h1.9v4.3c0.5-0.6,1.2-0.9,1.9-1c1.2,0,1.7,1,1.7,2.3l0,5.4
				C38.2,42.6,38.2,44.9,36.6,44.9 M45.3,40.2h-3.8v2.2c0,0,0,1,0.9,1c0.9,0,0.9-1,0.9-1v-1h1.9v1.6c-0.3,1.3-1.4,2.1-2.7,2
				c-1.3,0.1-2.6-0.7-2.9-2v-5.6c0-1.4,1.2-2.5,2.6-2.5c0.1,0,0.2,0,0.3,0c1.3-0.2,2.5,0.7,2.7,2c0,0.1,0,0.3,0,0.4L45.3,40.2z"/>
		</g>
	</g>
</g>
</svg>
