<?xml version="1.0" encoding="utf-8"?>
<!-- Generator: Adobe Illustrator 26.3.1, SVG Export Plug-In . SVG Version: 6.00 Build 0)  -->
<svg version="1.1" id="Capa_1" xmlns="http://www.w3.org/2000/svg" xmlns:xlink="http://www.w3.org/1999/xlink" x="0px" y="0px"
	 viewBox="0 0 64 64" style="enable-background:new 0 0 64 64;" xml:space="preserve">
<style type="text/css">
	.st0{fill-rule:evenodd;clip-rule:evenodd;fill:#FFFFFF;}
</style>
<g id="Artboard">
	<path class="st0" d="M32,12c-11,0-20,9-20,20s9,20,20,20s20-9,20-20S43,12,32,12z M41.3,25.6C41,28.8,39.7,36.4,39,40
		c-0.3,1.5-0.8,2-1.4,2.1c-1.2,0.1-2-0.8-3.2-1.5c-1.8-1.2-2.8-1.9-4.5-3c-2-1.3-0.7-2,0.4-3.2c0.3-0.3,5.4-5,5.5-5.4
		c0-0.1,0-0.2-0.1-0.4s-0.3-0.1-0.4,0c-0.2,0-3,1.9-8.4,5.6c-0.8,0.5-1.5,0.8-2.2,0.8c-0.7,0-2.1-0.4-3.1-0.7
		c-1.3-0.4-2.2-0.6-2.2-1.3c0-0.4,0.5-0.7,1.5-1.1c5.8-2.5,9.7-4.2,11.7-5c5.6-2.3,6.7-2.7,7.5-2.7C41.1,24,41.3,24.8,41.3,25.6z"/>
</g>
</svg>
