<?xml version="1.0" encoding="utf-8"?>
<!-- Generator: Adobe Illustrator 26.3.1, SVG Export Plug-In . SVG Version: 6.00 Build 0)  -->
<svg version="1.1" id="Capa_1" xmlns="http://www.w3.org/2000/svg" xmlns:xlink="http://www.w3.org/1999/xlink" x="0px" y="0px"
	 viewBox="0 0 64 64" style="enable-background:new 0 0 64 64;" xml:space="preserve">
<style type="text/css">
	.st0{fill:#FFFFFF;}
</style>
<g>
	<g>
		<path class="st0" d="M48.1,40l-4.8-4.8c-1.7-1.7-4.6-1.1-5.3,1.2c-0.5,1.5-2.2,2.3-3.7,2c-3.4-0.8-8-5.3-8.8-8.8
			c-0.5-1.5,0.5-3.2,2-3.7c2.2-0.6,2.9-3.6,1.2-5.3l-4.8-4.8c-1.4-1.2-3.4-1.2-4.6,0l-3.2,3.2c-3.2,3.4,0.3,12.4,8.3,20.4
			s17,11.7,20.4,8.3l3.2-3.2C49.3,43.2,49.3,41.1,48.1,40z"/>
	</g>
</g>
</svg>
