<?xml version="1.0" encoding="utf-8"?>
<!-- Generator: Adobe Illustrator 26.3.1, SVG Export Plug-In . SVG Version: 6.00 Build 0)  -->
<svg version="1.1" id="Capa_1" xmlns="http://www.w3.org/2000/svg" xmlns:xlink="http://www.w3.org/1999/xlink" x="0px" y="0px"
	 viewBox="0 0 64 64" style="enable-background:new 0 0 64 64;" xml:space="preserve">
<style type="text/css">
	.st0{fill-rule:evenodd;clip-rule:evenodd;fill:#FFFFFF;}
</style>
<path class="st0" d="M45.5,18.5c-3.6-3.6-8.3-5.5-13.4-5.5c-10.4,0-18.9,8.5-18.9,18.9c0,3.3,0.9,6.6,2.5,9.5L13,51.1l10-2.6
	c2.8,1.5,5.9,2.3,9,2.3h0c10.4,0,18.9-8.5,18.9-18.9C51,26.8,49,22,45.5,18.5z M32.1,47.6L32.1,47.6c-2.8,0-5.6-0.8-8-2.2L23.5,45
	l-6,1.6l1.6-5.8l-0.4-0.6c-1.6-2.5-2.4-5.4-2.4-8.4c0-8.7,7.1-15.7,15.7-15.7c4.2,0,8.1,1.6,11.1,4.6c3,3,4.6,6.9,4.6,11.1
	C47.8,40.5,40.7,47.6,32.1,47.6z M40.7,35.8c-0.5-0.2-2.8-1.4-3.2-1.5c-0.4-0.2-0.7-0.2-1.1,0.2c-0.3,0.5-1.2,1.5-1.5,1.9
	c-0.3,0.3-0.6,0.4-1,0.1c-0.5-0.2-2-0.7-3.8-2.3c-1.4-1.3-2.4-2.8-2.6-3.3c-0.3-0.5,0-0.7,0.2-1c0.5-0.6,1-1.3,1.2-1.6
	c0.2-0.3,0.1-0.6,0-0.8c-0.1-0.2-1.1-2.6-1.5-3.5c-0.4-0.9-0.8-0.8-1.1-0.8c-0.3,0-0.6,0-0.9,0c-0.3,0-0.8,0.1-1.3,0.6
	c-0.4,0.5-1.7,1.6-1.7,3.9s1.7,4.6,1.9,4.9s3.3,5.1,8.1,7.1c1.1,0.5,2,0.8,2.7,1c1.1,0.4,2.2,0.3,3,0.2c0.9-0.1,2.8-1.1,3.2-2.2
	c0.4-1.1,0.4-2.1,0.3-2.2C41.5,36.1,41.2,36,40.7,35.8z"/>
</svg>
