<?xml version="1.0" encoding="utf-8"?>
<!-- Generator: Adobe Illustrator 26.3.1, SVG Export Plug-In . SVG Version: 6.00 Build 0)  -->
<svg version="1.1" id="Layer_1" xmlns="http://www.w3.org/2000/svg" xmlns:xlink="http://www.w3.org/1999/xlink" x="0px" y="0px"
	 viewBox="0 0 170 48" style="enable-background:new 0 0 170 48;" xml:space="preserve">
<style type="text/css">
	.st0{fill:#FFFFFF;}
	.st1{fill:#CA4283;}
	.st2{fill:#74C5D2;}
	.st3{fill:#5F8DC8;}
	.st4{fill:#E4755B;}
	.st5{fill:#EBC06C;}
</style>
<g>
	<g>
		<path class="st0" d="M21.7,32.5c0.6-0.1,1.3-0.2,2.1-0.3s1.5-0.1,2.3-0.1c0.8,0,1.6,0.1,2.4,0.2c0.8,0.1,1.5,0.4,2.2,0.7
			c0.6,0.4,1.2,0.9,1.6,1.5c0.4,0.7,0.6,1.5,0.6,2.6c0,0.9-0.2,1.8-0.5,2.4c-0.4,0.7-0.8,1.2-1.4,1.6c-0.6,0.4-1.2,0.7-2,0.9
			c-0.7,0.2-1.5,0.3-2.3,0.3c-0.1,0-0.2,0-0.4,0c-0.2,0-0.3,0-0.5,0c-0.2,0-0.4,0-0.5,0c-0.2,0-0.3,0-0.4,0v5.2h-3.1V32.5z
			 M26.3,34.7c-0.3,0-0.6,0-0.9,0c-0.3,0-0.5,0-0.7,0.1v4.9c0.1,0,0.2,0,0.3,0c0.1,0,0.3,0,0.4,0c0.1,0,0.3,0,0.4,0
			c0.1,0,0.2,0,0.3,0c0.4,0,0.8,0,1.2-0.1c0.4-0.1,0.8-0.2,1.1-0.4c0.3-0.2,0.6-0.5,0.8-0.8c0.2-0.3,0.3-0.8,0.3-1.4
			c0-0.5-0.1-0.9-0.3-1.2c-0.2-0.3-0.4-0.6-0.7-0.7c-0.3-0.2-0.6-0.3-1-0.4C27.1,34.7,26.7,34.7,26.3,34.7z"/>
		<path class="st0" d="M34.7,32.5c0.4-0.1,0.7-0.1,1.1-0.2c0.4-0.1,0.8-0.1,1.2-0.1c0.4,0,0.8-0.1,1.2-0.1c0.4,0,0.7,0,1.1,0
			c0.7,0,1.5,0.1,2.2,0.2c0.7,0.1,1.4,0.4,1.9,0.7c0.6,0.3,1,0.8,1.4,1.3c0.3,0.6,0.5,1.2,0.5,2.1c0,1.2-0.3,2.2-0.9,3
			C43.8,40.2,43,40.7,42,41l1.1,0.7l3.7,5.8h-3.6l-3.6-5.9l-1.6-0.3v6.2h-3.1V32.5z M39.5,34.8c-0.3,0-0.6,0-0.9,0
			c-0.3,0-0.6,0-0.7,0.1v4.4h1.3c0.9,0,1.6-0.2,2.1-0.6c0.5-0.4,0.8-1,0.8-1.9c0-0.6-0.2-1.2-0.6-1.5C41,34.9,40.4,34.8,39.5,34.8z"
			/>
		<path class="st0" d="M47.2,39.9c0-2.5,0.6-4.5,1.8-5.8c1.2-1.4,2.9-2,5-2c1.1,0,2.1,0.2,3,0.6c0.9,0.4,1.6,0.9,2.1,1.6
			c0.6,0.7,1,1.5,1.3,2.5c0.3,1,0.4,2,0.4,3.2c0,2.5-0.6,4.5-1.8,5.8c-1.2,1.4-2.9,2-5,2c-1.2,0-2.2-0.2-3-0.6
			c-0.9-0.4-1.6-0.9-2.1-1.6c-0.6-0.7-1-1.5-1.2-2.5C47.4,42.1,47.2,41.1,47.2,39.9z M50.5,39.9c0,0.8,0.1,1.5,0.2,2.1
			c0.1,0.6,0.3,1.2,0.6,1.6c0.3,0.5,0.6,0.8,1.1,1.1c0.4,0.3,1,0.4,1.6,0.4c1.1,0,2-0.4,2.6-1.2c0.6-0.8,0.9-2.1,0.9-4
			c0-0.7-0.1-1.4-0.2-2c-0.1-0.6-0.3-1.2-0.6-1.7c-0.3-0.5-0.6-0.8-1.1-1.1c-0.4-0.3-1-0.4-1.6-0.4c-1.1,0-2,0.4-2.6,1.3
			C50.8,36.8,50.5,38.1,50.5,39.9z"/>
		<path class="st0" d="M63.1,32.5c0.6-0.1,1.3-0.2,2.1-0.3c0.8-0.1,1.5-0.1,2.3-0.1c0.8,0,1.6,0.1,2.4,0.2c0.8,0.1,1.5,0.4,2.2,0.7
			c0.6,0.4,1.2,0.9,1.6,1.5c0.4,0.7,0.6,1.5,0.6,2.6c0,0.9-0.2,1.8-0.5,2.4c-0.4,0.7-0.8,1.2-1.4,1.6c-0.6,0.4-1.2,0.7-2,0.9
			c-0.7,0.2-1.5,0.3-2.3,0.3c-0.1,0-0.2,0-0.4,0c-0.2,0-0.3,0-0.5,0c-0.2,0-0.4,0-0.5,0c-0.2,0-0.3,0-0.4,0v5.2h-3.1V32.5z
			 M67.7,34.7c-0.3,0-0.6,0-0.9,0c-0.3,0-0.5,0-0.7,0.1v4.9c0.1,0,0.2,0,0.3,0c0.1,0,0.3,0,0.4,0c0.1,0,0.3,0,0.4,0
			c0.1,0,0.2,0,0.3,0c0.4,0,0.8,0,1.2-0.1c0.4-0.1,0.8-0.2,1.1-0.4c0.3-0.2,0.6-0.5,0.8-0.8c0.2-0.3,0.3-0.8,0.3-1.4
			c0-0.5-0.1-0.9-0.3-1.2c-0.2-0.3-0.4-0.6-0.7-0.7c-0.3-0.2-0.6-0.3-1-0.4C68.5,34.7,68.1,34.7,67.7,34.7z"/>
		<path class="st0" d="M76.1,32.3h9.5V35h-6.4v3.5h5.8v2.6h-5.8v3.7h6.5v2.6h-9.6V32.3z"/>
		<path class="st0" d="M88.1,32.5c0.4-0.1,0.7-0.1,1.1-0.2c0.4-0.1,0.8-0.1,1.2-0.1c0.4,0,0.8-0.1,1.2-0.1c0.4,0,0.7,0,1.1,0
			c0.7,0,1.5,0.1,2.2,0.2c0.7,0.1,1.4,0.4,1.9,0.7c0.6,0.3,1,0.8,1.4,1.3c0.3,0.6,0.5,1.2,0.5,2.1c0,1.2-0.3,2.2-0.9,3
			c-0.6,0.8-1.4,1.3-2.4,1.6l1.1,0.7l3.7,5.8h-3.6l-3.6-5.9l-1.6-0.3v6.2h-3.1V32.5z M92.9,34.8c-0.3,0-0.6,0-0.9,0
			c-0.3,0-0.6,0-0.7,0.1v4.4h1.3c0.9,0,1.6-0.2,2.1-0.6c0.5-0.4,0.8-1,0.8-1.9c0-0.6-0.2-1.2-0.6-1.5C94.3,34.9,93.7,34.8,92.9,34.8
			z"/>
		<path class="st0" d="M112.1,35h-4.7v12.5h-3.1V35h-4.7v-2.6h12.5V35z"/>
		<path class="st0" d="M116,41.8l-5.3-9.5h3.7l2.9,5.7l0.3,1.6h0.1l0.3-1.6l2.8-5.6h3.4l-5.2,9.5v5.6H116V41.8z"/>
		<path class="st0" d="M130.8,32.5c0.6-0.1,1.3-0.2,2.1-0.3c0.8-0.1,1.5-0.1,2.3-0.1c0.8,0,1.6,0.1,2.4,0.2c0.8,0.1,1.5,0.4,2.2,0.7
			c0.6,0.4,1.2,0.9,1.6,1.5c0.4,0.7,0.6,1.5,0.6,2.6c0,0.9-0.2,1.8-0.5,2.4s-0.8,1.2-1.4,1.6c-0.6,0.4-1.2,0.7-2,0.9
			c-0.7,0.2-1.5,0.3-2.3,0.3c-0.1,0-0.2,0-0.4,0c-0.2,0-0.3,0-0.5,0c-0.2,0-0.4,0-0.5,0c-0.2,0-0.3,0-0.4,0v5.2h-3.1V32.5z
			 M135.5,34.7c-0.3,0-0.6,0-0.9,0c-0.3,0-0.5,0-0.7,0.1v4.9c0.1,0,0.2,0,0.3,0c0.1,0,0.3,0,0.4,0c0.1,0,0.3,0,0.4,0s0.2,0,0.3,0
			c0.4,0,0.8,0,1.2-0.1c0.4-0.1,0.8-0.2,1.1-0.4c0.3-0.2,0.6-0.5,0.8-0.8c0.2-0.3,0.3-0.8,0.3-1.4c0-0.5-0.1-0.9-0.3-1.2
			c-0.2-0.3-0.4-0.6-0.7-0.7c-0.3-0.2-0.6-0.3-1-0.4C136.3,34.7,135.9,34.7,135.5,34.7z"/>
		<path class="st0" d="M143.9,32.5c0.4-0.1,0.7-0.1,1.1-0.2c0.4-0.1,0.8-0.1,1.2-0.1c0.4,0,0.8-0.1,1.2-0.1c0.4,0,0.7,0,1.1,0
			c0.7,0,1.5,0.1,2.2,0.2c0.7,0.1,1.4,0.4,1.9,0.7c0.6,0.3,1,0.8,1.4,1.3c0.3,0.6,0.5,1.2,0.5,2.1c0,1.2-0.3,2.2-0.9,3
			c-0.6,0.8-1.4,1.3-2.4,1.6l1.1,0.7l3.7,5.8h-3.6l-3.6-5.9l-1.6-0.3v6.2h-3.1V32.5z M148.7,34.8c-0.3,0-0.6,0-0.9,0
			c-0.3,0-0.6,0-0.7,0.1v4.4h1.3c0.9,0,1.6-0.2,2.1-0.6c0.5-0.4,0.8-1,0.8-1.9c0-0.6-0.2-1.2-0.6-1.5
			C150.2,34.9,149.5,34.8,148.7,34.8z"/>
		<path class="st0" d="M156.4,39.9c0-2.5,0.6-4.5,1.8-5.8c1.2-1.4,2.9-2,5-2c1.1,0,2.1,0.2,3,0.6c0.9,0.4,1.6,0.9,2.1,1.6
			c0.6,0.7,1,1.5,1.3,2.5c0.3,1,0.4,2,0.4,3.2c0,2.5-0.6,4.5-1.8,5.8c-1.2,1.4-2.9,2-5,2c-1.2,0-2.2-0.2-3-0.6
			c-0.9-0.4-1.6-0.9-2.1-1.6c-0.6-0.7-1-1.5-1.2-2.5C156.6,42.1,156.4,41.1,156.4,39.9z M159.7,39.9c0,0.8,0.1,1.5,0.2,2.1
			c0.1,0.6,0.3,1.2,0.6,1.6c0.3,0.5,0.6,0.8,1.1,1.1c0.4,0.3,1,0.4,1.6,0.4c1.1,0,2-0.4,2.6-1.2c0.6-0.8,0.9-2.1,0.9-4
			c0-0.7-0.1-1.4-0.2-2c-0.1-0.6-0.3-1.2-0.6-1.7c-0.3-0.5-0.6-0.8-1.1-1.1s-1-0.4-1.6-0.4c-1.1,0-2,0.4-2.6,1.3
			C160,36.8,159.7,38.1,159.7,39.9z"/>
	</g>
	<g>
		<path class="st0" d="M98.1,15h4.1v0.8H99v2.6h3v0.8h-3v3.3h-0.9V15z"/>
		<path class="st0" d="M107.4,22c-0.2,0.2-0.5,0.3-0.8,0.4c-0.3,0.1-0.7,0.1-1,0.1c-0.4,0-0.8-0.1-1.1-0.2c-0.3-0.1-0.5-0.3-0.7-0.6
			c-0.2-0.2-0.3-0.5-0.4-0.9c-0.1-0.3-0.1-0.7-0.1-1.2c0-0.9,0.2-1.6,0.6-2.1c0.4-0.5,1-0.7,1.7-0.7c0.2,0,0.5,0,0.7,0.1
			c0.2,0.1,0.5,0.2,0.7,0.3c0.2,0.1,0.3,0.4,0.5,0.6c0.1,0.3,0.2,0.6,0.2,1.1c0,0.2,0,0.5-0.1,0.8h-3.4c0,0.3,0,0.6,0.1,0.8
			c0.1,0.2,0.2,0.4,0.3,0.6c0.1,0.2,0.3,0.3,0.5,0.4c0.2,0.1,0.5,0.1,0.8,0.1c0.2,0,0.5,0,0.7-0.1c0.2-0.1,0.4-0.2,0.5-0.3L107.4,22
			z M105.6,17.7c-0.4,0-0.8,0.1-1,0.3c-0.3,0.2-0.4,0.6-0.5,1.1h2.6c0-0.5-0.1-0.9-0.3-1.1C106.2,17.8,106,17.7,105.6,17.7z"/>
		<path class="st0" d="M112.8,22c-0.2,0.2-0.5,0.3-0.8,0.4c-0.3,0.1-0.7,0.1-1,0.1c-0.4,0-0.8-0.1-1.1-0.2c-0.3-0.1-0.5-0.3-0.7-0.6
			c-0.2-0.2-0.3-0.5-0.4-0.9c-0.1-0.3-0.1-0.7-0.1-1.2c0-0.9,0.2-1.6,0.6-2.1c0.4-0.5,1-0.7,1.7-0.7c0.2,0,0.5,0,0.7,0.1
			c0.2,0.1,0.5,0.2,0.7,0.3c0.2,0.1,0.3,0.4,0.5,0.6c0.1,0.3,0.2,0.6,0.2,1.1c0,0.2,0,0.5-0.1,0.8h-3.4c0,0.3,0,0.6,0.1,0.8
			c0.1,0.2,0.2,0.4,0.3,0.6c0.1,0.2,0.3,0.3,0.5,0.4c0.2,0.1,0.5,0.1,0.8,0.1c0.2,0,0.5,0,0.7-0.1c0.2-0.1,0.4-0.2,0.5-0.3L112.8,22
			z M111,17.7c-0.4,0-0.8,0.1-1,0.3c-0.3,0.2-0.4,0.6-0.5,1.1h2.6c0-0.5-0.1-0.9-0.3-1.1C111.7,17.8,111.4,17.7,111,17.7z"/>
		<path class="st0" d="M115.3,21.1c0,0.2,0,0.4,0.1,0.5c0.1,0.1,0.2,0.2,0.4,0.2c0.1,0,0.2,0,0.3,0c0.1,0,0.2,0,0.4-0.1l0.1,0.7
			c-0.1,0.1-0.3,0.1-0.5,0.1c-0.2,0-0.4,0.1-0.5,0.1c-0.3,0-0.6-0.1-0.8-0.3c-0.2-0.2-0.3-0.5-0.3-0.9V15h0.9V21.1z"/>
		<path class="st0" d="M119.8,21c0-0.2-0.1-0.4-0.2-0.5c-0.1-0.1-0.3-0.2-0.5-0.3c-0.2-0.1-0.4-0.2-0.6-0.2
			c-0.2-0.1-0.4-0.2-0.6-0.3c-0.2-0.1-0.3-0.3-0.5-0.5c-0.1-0.2-0.2-0.4-0.2-0.7c0-0.5,0.1-0.9,0.4-1.1c0.3-0.2,0.7-0.4,1.2-0.4
			c0.4,0,0.7,0,1,0.1c0.3,0.1,0.5,0.1,0.7,0.2l-0.2,0.7c-0.2-0.1-0.4-0.1-0.6-0.2c-0.2-0.1-0.5-0.1-0.7-0.1c-0.3,0-0.5,0.1-0.7,0.2
			c-0.1,0.1-0.2,0.3-0.2,0.6c0,0.2,0.1,0.3,0.2,0.4c0.1,0.1,0.3,0.2,0.5,0.3c0.2,0.1,0.4,0.2,0.6,0.2c0.2,0.1,0.4,0.2,0.6,0.3
			c0.2,0.1,0.3,0.3,0.5,0.5c0.1,0.2,0.2,0.5,0.2,0.8c0,0.2,0,0.4-0.1,0.6c-0.1,0.2-0.2,0.4-0.3,0.5c-0.2,0.1-0.4,0.3-0.6,0.3
			c-0.2,0.1-0.5,0.1-0.8,0.1c-0.4,0-0.8,0-1-0.1c-0.3-0.1-0.5-0.2-0.7-0.3l0.3-0.7c0.2,0.1,0.4,0.2,0.6,0.3c0.3,0.1,0.5,0.1,0.8,0.1
			c0.3,0,0.6-0.1,0.8-0.2C119.7,21.5,119.8,21.3,119.8,21z"/>
		<path class="st0" d="M125.8,21.1c0,0.2,0,0.4,0.1,0.5c0.1,0.1,0.2,0.2,0.4,0.2c0.1,0,0.2,0,0.3,0c0.1,0,0.2,0,0.4-0.1l0.1,0.7
			c-0.1,0.1-0.3,0.1-0.5,0.1c-0.2,0-0.4,0.1-0.5,0.1c-0.3,0-0.6-0.1-0.8-0.3c-0.2-0.2-0.3-0.5-0.3-0.9V15h0.9V21.1z"/>
		<path class="st0" d="M127.9,15.5c0-0.2,0.1-0.3,0.2-0.4c0.1-0.1,0.3-0.2,0.4-0.2c0.2,0,0.3,0.1,0.4,0.2c0.1,0.1,0.2,0.3,0.2,0.4
			s-0.1,0.3-0.2,0.4c-0.1,0.1-0.3,0.2-0.4,0.2c-0.2,0-0.3-0.1-0.4-0.2C128,15.8,127.9,15.6,127.9,15.5z M128.1,17.1h0.9v5.3h-0.9
			V17.1z"/>
		<path class="st0" d="M132.1,20h-0.5v2.4h-0.9V15h0.9v4.5l0.4-0.1l1.7-2.3h1l-1.6,2.1l-0.4,0.4l0.5,0.4l1.8,2.4h-1.1L132.1,20z"/>
		<path class="st0" d="M139.8,22c-0.2,0.2-0.5,0.3-0.8,0.4c-0.3,0.1-0.7,0.1-1,0.1c-0.4,0-0.8-0.1-1.1-0.2c-0.3-0.1-0.5-0.3-0.7-0.6
			c-0.2-0.2-0.3-0.5-0.4-0.9c-0.1-0.3-0.1-0.7-0.1-1.2c0-0.9,0.2-1.6,0.6-2.1c0.4-0.5,1-0.7,1.7-0.7c0.2,0,0.5,0,0.7,0.1
			c0.2,0.1,0.5,0.2,0.7,0.3c0.2,0.1,0.3,0.4,0.5,0.6c0.1,0.3,0.2,0.6,0.2,1.1c0,0.2,0,0.5-0.1,0.8h-3.4c0,0.3,0,0.6,0.1,0.8
			c0.1,0.2,0.2,0.4,0.3,0.6c0.1,0.2,0.3,0.3,0.5,0.4c0.2,0.1,0.5,0.1,0.8,0.1c0.2,0,0.5,0,0.7-0.1c0.2-0.1,0.4-0.2,0.5-0.3L139.8,22
			z M138,17.7c-0.4,0-0.8,0.1-1,0.3c-0.3,0.2-0.4,0.6-0.5,1.1h2.6c0-0.5-0.1-0.9-0.3-1.1C138.6,17.8,138.3,17.7,138,17.7z"/>
		<path class="st0" d="M147.6,22.4v-3c0-0.3,0-0.5,0-0.7c0-0.2-0.1-0.4-0.2-0.5c-0.1-0.1-0.2-0.2-0.3-0.3s-0.3-0.1-0.6-0.1
			c-0.3,0-0.6,0.1-0.9,0.3c-0.3,0.2-0.4,0.5-0.5,0.8v3.6h-0.9V15h0.9v2.7h0c0.2-0.2,0.4-0.4,0.7-0.5c0.3-0.1,0.6-0.2,1-0.2
			c0.3,0,0.6,0,0.8,0.1c0.2,0.1,0.4,0.2,0.5,0.4c0.1,0.2,0.3,0.4,0.3,0.7c0.1,0.3,0.1,0.7,0.1,1.1v3.2H147.6z"/>
		<path class="st0" d="M149.7,19.8c0-0.9,0.2-1.6,0.6-2.1c0.4-0.5,1-0.7,1.7-0.7c0.4,0,0.7,0.1,1,0.2c0.3,0.1,0.5,0.3,0.7,0.6
			c0.2,0.2,0.3,0.5,0.4,0.9c0.1,0.3,0.1,0.7,0.1,1.1c0,0.9-0.2,1.6-0.6,2.1c-0.4,0.5-1,0.7-1.7,0.7c-0.4,0-0.7-0.1-1-0.2
			c-0.3-0.1-0.5-0.3-0.7-0.6c-0.2-0.2-0.3-0.5-0.4-0.9C149.8,20.6,149.7,20.2,149.7,19.8z M150.6,19.8c0,0.3,0,0.5,0.1,0.8
			c0.1,0.2,0.1,0.5,0.3,0.7c0.1,0.2,0.3,0.3,0.4,0.4c0.2,0.1,0.4,0.2,0.7,0.2c1,0,1.5-0.7,1.5-2c0-0.3,0-0.5-0.1-0.8
			c-0.1-0.2-0.1-0.5-0.3-0.7c-0.1-0.2-0.3-0.3-0.4-0.4c-0.2-0.1-0.4-0.2-0.7-0.2C151.1,17.7,150.6,18.4,150.6,19.8z"/>
		<path class="st0" d="M158.9,22.4v-3c0-0.3,0-0.5,0-0.7c0-0.2-0.1-0.4-0.1-0.5c-0.1-0.1-0.2-0.2-0.3-0.3c-0.1-0.1-0.3-0.1-0.5-0.1
			c-0.3,0-0.6,0.1-0.8,0.3c-0.2,0.2-0.4,0.4-0.5,0.7v3.7h-0.9v-5.3h0.6l0.2,0.7h0c0.2-0.2,0.4-0.4,0.7-0.6c0.3-0.1,0.6-0.2,1-0.2
			c0.3,0,0.6,0.1,0.8,0.2c0.2,0.1,0.4,0.4,0.5,0.7c0.2-0.3,0.4-0.5,0.7-0.7c0.3-0.2,0.6-0.2,1-0.2c0.3,0,0.6,0,0.8,0.1
			c0.2,0.1,0.4,0.2,0.5,0.4c0.1,0.2,0.2,0.4,0.3,0.7c0.1,0.3,0.1,0.7,0.1,1.1v3.2H162v-3.2c0-0.3,0-0.5,0-0.7c0-0.2-0.1-0.3-0.1-0.5
			c-0.1-0.1-0.2-0.2-0.3-0.3s-0.3-0.1-0.5-0.1c-0.4,0-0.6,0.1-0.8,0.3c-0.2,0.2-0.3,0.5-0.4,0.9v3.6H158.9z"/>
		<path class="st0" d="M168.3,22c-0.2,0.2-0.5,0.3-0.8,0.4c-0.3,0.1-0.7,0.1-1,0.1c-0.4,0-0.8-0.1-1.1-0.2c-0.3-0.1-0.5-0.3-0.7-0.6
			c-0.2-0.2-0.3-0.5-0.4-0.9c-0.1-0.3-0.1-0.7-0.1-1.2c0-0.9,0.2-1.6,0.6-2.1c0.4-0.5,1-0.7,1.7-0.7c0.2,0,0.5,0,0.7,0.1
			c0.2,0.1,0.5,0.2,0.7,0.3c0.2,0.1,0.3,0.4,0.5,0.6c0.1,0.3,0.2,0.6,0.2,1.1c0,0.2,0,0.5-0.1,0.8H165c0,0.3,0,0.6,0.1,0.8
			c0.1,0.2,0.2,0.4,0.3,0.6c0.1,0.2,0.3,0.3,0.5,0.4c0.2,0.1,0.5,0.1,0.8,0.1c0.2,0,0.5,0,0.7-0.1c0.2-0.1,0.4-0.2,0.5-0.3L168.3,22
			z M166.5,17.7c-0.4,0-0.8,0.1-1,0.3c-0.3,0.2-0.4,0.6-0.5,1.1h2.6c0-0.5-0.1-0.9-0.3-1.1S166.8,17.7,166.5,17.7z"/>
	</g>
	<g>
		<path class="st1" d="M20.9,21.9h-4.3c-0.5,0-1-0.4-1-1v-7.6c0-0.5,0.4-1,1-1h11.3c0.5,0,1,0.4,1,1V14
			C28.9,18.4,25.3,21.9,20.9,21.9z"/>
		<path class="st2" d="M12.3,21.9H1c-0.5,0-1-0.4-1-1v-7.6c0-0.5,0.4-1,1-1h11.3c0.5,0,1,0.4,1,1V21C13.2,21.5,12.8,21.9,12.3,21.9z
			"/>
		<path class="st3" d="M12.3,34H1c-0.5,0-1-0.4-1-1v-7.6c0-0.5,0.4-1,1-1h11.3c0.5,0,1,0.4,1,1V33C13.2,33.6,12.8,34,12.3,34z"/>
		<path class="st4" d="M27.9,9.9H16.7c-0.5,0-1-0.4-1-1V1.3c0-0.5,0.4-1,1-1h4.3c4.4,0,8,3.6,8,8v0.7C28.9,9.4,28.5,9.9,27.9,9.9z"
			/>
		<path class="st5" d="M12.3,9.9H1c-0.5,0-1-0.4-1-1V1.3c0-0.5,0.4-1,1-1h11.3c0.5,0,1,0.4,1,1v7.6C13.2,9.4,12.8,9.9,12.3,9.9z"/>
	</g>
</g>
</svg>
