<?xml version="1.0" standalone="no"?>
<!DOCTYPE svg PUBLIC "-//W3C//DTD SVG 20010904//EN"
 "http://www.w3.org/TR/2001/REC-SVG-20010904/DTD/svg10.dtd">
<svg version="1.0" xmlns="http://www.w3.org/2000/svg"
 width="700.000000pt" height="700.000000pt" viewBox="0 0 700.000000 700.000000"
 preserveAspectRatio="xMidYMid meet">
<metadata>
Created by potrace 1.14, written by Peter Selinger 2001-2017
</metadata>
<g transform="translate(0.000000,700.000000) scale(0.100000,-0.100000)"
fill="#000000" stroke="none">
<path d="M0 3500 l0 -3500 3500 0 3500 0 0 3500 0 3500 -3500 0 -3500 0 0
-3500z m5278 3240 c255 -28 512 -126 726 -277 109 -78 276 -247 358 -363 123
-173 224 -409 262 -610 21 -109 21 -377 0 -519 -89 -606 -477 -1208 -1149
-1784 -186 -159 -172 -145 -149 -153 296 -106 598 -266 828 -438 214 -161 376
-332 526 -556 l80 -119 -135 -105 -134 -105 -85 92 c-352 383 -851 638 -1471
751 -311 57 -388 83 -458 152 -61 60 -91 123 -95 206 -8 128 31 195 187 323
411 337 818 751 1033 1050 247 344 378 683 378 982 0 408 -320 795 -714 864
-112 19 -322 7 -431 -25 -351 -105 -677 -411 -866 -813 -58 -123 -128 -313
-164 -446 l-27 -98 60 -132 c78 -172 105 -237 157 -379 262 -712 456 -1835
530 -3058 16 -283 39 -820 33 -825 -4 -4 -351 -36 -354 -32 -1 1 -9 83 -18
182 -9 99 -28 306 -41 460 -99 1112 -255 2003 -454 2600 l-30 90 5 -170 c18
-575 105 -1307 234 -1970 41 -209 145 -681 215 -970 30 -126 51 -232 47 -236
-9 -8 -334 -70 -339 -65 -15 15 -242 865 -323 1208 -288 1226 -391 2297 -294
3071 l16 128 -85 127 c-244 364 -476 579 -780 722 -344 162 -678 170 -968 25
-305 -154 -505 -537 -460 -884 39 -307 249 -621 606 -906 279 -223 703 -459
1210 -674 121 -51 248 -106 282 -121 200 -91 255 -328 113 -483 -62 -68 -109
-100 -315 -212 -215 -118 -315 -181 -454 -285 -355 -265 -586 -541 -753 -898
-27 -59 -52 -109 -54 -111 -2 -2 -76 22 -164 54 -127 46 -159 61 -155 74 2 9
20 70 39 136 119 417 345 769 723 1126 55 53 136 124 179 159 44 35 77 66 75
69 -3 3 -64 31 -135 62 -518 222 -979 520 -1291 833 -282 284 -447 563 -531
898 -38 153 -45 395 -15 567 99 579 471 1038 978 1207 276 93 562 107 876 43
269 -54 574 -196 812 -378 89 -67 266 -243 358 -353 44 -54 83 -98 86 -98 4 0
15 24 25 53 31 90 161 348 229 454 197 308 460 554 756 707 285 147 579 207
869 176z"/>
</g>
</svg>
