<?xml version="1.0" standalone="no"?>
<!DOCTYPE svg PUBLIC "-//W3C//DTD SVG 20010904//EN"
 "http://www.w3.org/TR/2001/REC-SVG-20010904/DTD/svg10.dtd">
<svg version="1.0" xmlns="http://www.w3.org/2000/svg"
 width="700.000000pt" height="700.000000pt" viewBox="0 0 700.000000 700.000000"
 preserveAspectRatio="xMidYMid meet">
<metadata>
Created by potrace 1.14, written by Peter Selinger 2001-2017
</metadata>
<g transform="translate(0.000000,700.000000) scale(0.100000,-0.100000)"
fill="#000000" stroke="none">
<path d="M1197 6305 c-46 -16 -73 -39 -95 -80 -14 -27 -16 -107 -17 -710 0
-649 1 -681 19 -718 10 -21 37 -51 59 -65 l41 -27 990 0 c1115 0 1029 -6 1084
77 l27 42 0 685 c0 767 4 720 -72 778 l-36 28 -981 2 c-797 1 -988 -1 -1019
-12z"/>
<path d="M3815 6305 c-16 -7 -41 -23 -54 -35 -52 -50 -51 -39 -51 -762 0 -658
0 -673 21 -714 15 -32 32 -49 68 -67 l48 -24 979 2 c688 1 987 4 1005 12 38
16 87 78 95 118 6 35 -1 277 -11 341 -63 429 -342 811 -735 1005 -114 56 -240
98 -340 114 -19 3 -60 9 -90 14 -30 5 -246 9 -480 9 -330 0 -432 -2 -455 -13z"/>
<path d="M1193 4284 c-46 -16 -81 -51 -96 -96 -9 -26 -12 -208 -12 -710 l0
-675 28 -40 c15 -22 44 -49 63 -59 33 -18 74 -19 1022 -19 1110 1 1025 -5
1080 77 l27 42 1 665 c1 366 -2 682 -7 702 -11 45 -41 84 -82 107 -30 16 -104
17 -1009 18 -764 0 -986 -2 -1015 -12z"/>
<path d="M3812 4280 c-46 -21 -79 -60 -91 -109 -5 -20 -9 -326 -9 -694 1 -651
1 -658 22 -699 24 -49 59 -76 107 -87 41 -9 852 -6 924 3 533 69 994 476 1124
993 11 43 22 94 25 113 2 19 8 56 11 81 11 77 11 248 0 293 -12 45 -32 72 -80
102 -28 18 -65 19 -1012 20 -907 1 -986 -1 -1021 -16z"/>
<path d="M1182 2260 c-25 -12 -51 -35 -69 -61 l-28 -42 0 -687 0 -687 27 -39
c15 -22 42 -48 60 -59 32 -19 59 -20 1023 -20 l990 0 37 23 c20 13 47 40 60
60 l23 37 1 670 c0 369 -3 684 -8 701 -12 46 -46 84 -91 104 -37 17 -102 18
-1012 18 -917 0 -975 -1 -1013 -18z"/>
</g>
</svg>
